<?xml version="1.0" encoding="UTF-8" standalone="no"?>
<svg
   version="1.1"
   width="945"
   height="945"
   id="svg25"
   sodipodi:docname="Vapor.svg"
   inkscape:export-filename="Vapor.png"
   inkscape:export-xdpi="96"
   inkscape:export-ydpi="96"
   inkscape:version="1.4.2 (ebf0e940d0, 2025-05-08)"
   xmlns:inkscape="http://www.inkscape.org/namespaces/inkscape"
   xmlns:sodipodi="http://sodipodi.sourceforge.net/DTD/sodipodi-0.dtd"
   xmlns="http://www.w3.org/2000/svg"
   xmlns:svg="http://www.w3.org/2000/svg">
  <defs
     id="defs25" />
  <sodipodi:namedview
     id="namedview25"
     pagecolor="#ffffff"
     bordercolor="#000000"
     borderopacity="0.25"
     inkscape:showpageshadow="2"
     inkscape:pageopacity="0.0"
     inkscape:pagecheckerboard="0"
     inkscape:deskcolor="#d1d1d1"
     inkscape:zoom="0.64051154"
     inkscape:cx="-13.270643"
     inkscape:cy="345.03672"
     inkscape:window-width="1886"
     inkscape:window-height="1022"
     inkscape:window-x="0"
     inkscape:window-y="0"
     inkscape:window-maximized="1"
     inkscape:current-layer="svg25" />
  <path
     d="M0 0 C0.75788818 0.10934875 1.51577637 0.21869751 2.29663086 0.33135986 C45.96456682 6.65482889 87.83370546 17.92356625 128.25732422 35.79394531 C130.66391725 36.85221214 133.07874484 37.88366542 135.50390625 38.8984375 C152.04789543 45.85905496 167.69331884 54.66398579 183 64 C183.75780762 64.46132324 184.51561523 64.92264648 185.29638672 65.39794922 C197.27140513 72.72690867 208.75237492 80.60032255 220 89 C220.90854736 89.67675781 220.90854736 89.67675781 221.83544922 90.3671875 C230.16191315 96.59610923 238.1281073 103.21207113 246 110 C246.71671875 110.61488281 247.4334375 111.22976562 248.171875 111.86328125 C250.13022057 113.55862587 252.0675217 115.2752353 254 117 C254.78503906 117.69222656 255.57007813 118.38445312 256.37890625 119.09765625 C263.58321408 125.56411178 270.45993985 132.35209606 277.3125 139.1875 C278.02614716 139.89726486 278.02614716 139.89726486 278.75421143 140.62136841 C284.3943457 146.23731644 289.84993977 151.93139363 295 158 C295.87708274 159.00956782 296.75465274 160.01871262 297.6328125 161.02734375 C305.10865089 169.75696695 312.12409985 178.79229046 319 188 C319.53915039 188.71816895 320.07830078 189.43633789 320.63378906 190.17626953 C333.12220249 206.87379644 343.95464885 224.52948787 353.85009766 242.87207031 C354.96683043 244.9386187 356.0977272 246.996882 357.23046875 249.0546875 C398.97784637 325.54844445 413.03589392 410.97534291 408 531 C407.90289734 531.68974915 407.80579468 532.37949829 407.70574951 533.09014893 C403.30818554 564.17830143 396.21674617 594.28499061 386 624 C385.68595215 624.92393555 385.3719043 625.84787109 385.04833984 626.79980469 C367.28097937 678.71251716 339.58962745 728.17301516 304 770 C303.53883789 770.54462891 303.07767578 771.08925781 302.60253906 771.65039062 C299.09493695 775.79013704 295.57492388 779.91817225 292 784 C291.36070557 784.73049561 290.72141113 785.46099121 290.06274414 786.21362305 C284.29025222 792.72199802 278.24022381 798.91408733 272.0793457 805.05102539 C270.43258596 806.69239796 268.79127905 808.33908819 267.15039062 809.98632812 C261.60632193 815.53431334 255.99554141 820.93686042 250 826 C248.82328412 827.01975584 247.64748693 828.04057285 246.47265625 829.0625 C216.01332362 855.3567164 181.98134128 877.06230152 146 895 C145.18370117 895.40943848 144.36740234 895.81887695 143.52636719 896.24072266 C130.66965191 902.64796043 117.45718731 907.99108029 104 913 C102.74582275 913.46768799 102.74582275 913.46768799 101.46630859 913.94482422 C68.56072234 926.09794524 34.71606691 934.19739934 0 939 C-1.74627686 939.24991699 -1.74627686 939.24991699 -3.52783203 939.50488281 C-42.51637398 944.84335645 -85.07106496 944.7765187 -124 939 C-125.03562073 938.84727631 -125.03562073 938.84727631 -126.09216309 938.69146729 C-214.08276243 925.6156242 -296.86729965 890.61829056 -365 833 C-366.20428306 831.9920154 -367.40870433 830.98419591 -368.61328125 829.9765625 C-383.96749984 817.05339257 -399.28792006 803.27980725 -412.30859375 787.96875 C-414.23867842 785.72218493 -416.24418139 783.55416096 -418.25 781.375 C-423.29815828 775.77256758 -427.92244425 769.88465799 -432.52001953 763.91259766 C-434.0097521 761.98739724 -435.5169948 760.0770228 -437.02734375 758.16796875 C-489.71847611 691.07810409 -523.06032008 607.80716006 -532 523 C-532.08506805 522.24388428 -532.17013611 521.48776855 -532.25778198 520.70874023 C-534.10028779 504.04956166 -534.34404964 487.43429435 -534.31567383 470.6953125 C-534.31104689 467.73877734 -534.31796805 464.78265406 -534.33618164 461.82617188 C-534.45293041 442.67217396 -533.6799008 424.00838743 -531 405 C-530.89295746 404.2192511 -530.78591492 403.4385022 -530.67562866 402.63409424 C-530.08723671 398.3880234 -529.41617255 394.1615815 -528.6875 389.9375 C-528.36894043 388.07448242 -528.36894043 388.07448242 -528.04394531 386.17382812 C-518.17679575 329.94969289 -497.98727061 274.66746976 -468 226 C-467.39357666 225.00395752 -467.39357666 225.00395752 -466.77490234 223.98779297 C-451.45592989 198.83261942 -433.59601427 175.84029609 -414.35546875 153.57568359 C-413.14498363 152.16853825 -411.94664269 150.75096694 -410.75 149.33203125 C-410.13125 148.60371094 -409.5125 147.87539062 -408.875 147.125 C-408.35679687 146.50882813 -407.83859375 145.89265625 -407.3046875 145.2578125 C-406 144 -406 144 -404 144 C-403.79375 143.46890625 -403.5875 142.9378125 -403.375 142.390625 C-401.42038808 138.99226564 -398.77876283 136.48944072 -396 133.75 C-395.4534375 133.19570312 -394.906875 132.64140625 -394.34375 132.0703125 C-390.2533867 128 -390.2533867 128 -388 128 C-387.67 127.01 -387.34 126.02 -387 125 C-385.50390625 123.4921875 -385.50390625 123.4921875 -383.5625 121.875 C-380.38120625 119.18052344 -377.26533364 116.43733361 -374.1875 113.625 C-348.04973744 90.10101369 -318.26241071 69.76407281 -287.27050781 53.21972656 C-284.93697269 51.96614146 -282.62097495 50.68357275 -280.3046875 49.3984375 C-231.93646817 22.92011658 -177.36748156 7.61198584 -123 0 C-121.82469727 -0.16806152 -120.64939453 -0.33612305 -119.43847656 -0.50927734 C-80.65340916 -5.78820401 -38.71250078 -5.71779642 0 0 Z "
     fill="#101010"
     transform="translate(534,3)"
     id="path1" />
  <path
     d="M0 0 C2 2 2 2 2.6875 5.5 C2.54285288 10.88087305 -0.79405904 13.51022677 -4.37109375 17.19921875 C-26.08074579 40.32822397 -35.07302401 69.82653691 -34.16601562 100.93603516 C-32.8217679 125.74531296 -11.27373155 148.23485285 3.29931641 166.82861328 C19.8056162 187.90340948 34.16208814 209.84101159 41 236 C41.47953125 237.83304687 41.47953125 237.83304687 41.96875 239.703125 C47.57242949 264.08950795 43.3068122 291.10695881 31.00390625 312.81640625 C22.16353079 326.86105732 10.45819058 338.60610518 -1.1875 350.3125 C-2.30995117 351.4420813 -2.30995117 351.4420813 -3.45507812 352.59448242 C-7.60016847 356.7272253 -11.84074192 360.67979079 -16.27416992 364.5012207 C-22.37411157 369.79865199 -27.84570556 375.79165762 -33 382 C-34.17755859 383.40185547 -34.17755859 383.40185547 -35.37890625 384.83203125 C-41.99249747 392.92068769 -46.82585173 401.43531057 -51 411 C-51.61488281 412.40572266 -51.61488281 412.40572266 -52.2421875 413.83984375 C-54.81656368 420.63499947 -55.77823988 427.60480887 -56.875 434.75 C-60.65107866 459.10242789 -71.68959059 477.65183561 -91.13671875 492.91796875 C-103.35855384 501.8050603 -117.11295188 509.03537274 -131.27734375 514.30859375 C-132.99998256 514.8690354 -132.99998256 514.8690354 -134 516 C-134.1339036 517.97503095 -134.20355231 519.95448596 -134.24609375 521.93359375 C-134.29540039 523.7424707 -134.29540039 523.7424707 -134.34570312 525.58789062 C-134.40680579 528.15030258 -134.46410948 530.712808 -134.51757812 533.27539062 C-134.55173828 534.48259766 -134.58589844 535.68980469 -134.62109375 536.93359375 C-134.65867798 538.6050647 -134.65867798 538.6050647 -134.69702148 540.31030273 C-135 543 -135 543 -137 545 C-139.34629822 545.26069641 -139.34629822 545.26069641 -142.32006836 545.2746582 C-143.43139633 545.28419022 -144.5427243 545.29372223 -145.68772888 545.30354309 C-146.89292679 545.30263168 -148.09812469 545.30172028 -149.33984375 545.30078125 C-151.18939415 545.30720894 -151.18939415 545.30720894 -153.0763092 545.31376648 C-156.35824711 545.32099425 -159.64000258 545.31787515 -162.92193604 545.31219482 C-164.93399306 545.31249947 -166.94575564 545.32253448 -168.95776367 545.33618164 C-172.81443194 545.36061045 -176.67060794 545.36483929 -180.52734375 545.36328125 C-181.73051743 545.372491 -182.9336911 545.38170074 -184.17332458 545.39118958 C-185.84504478 545.38184639 -185.84504478 545.38184639 -187.55053711 545.37231445 C-189.02374672 545.37325859 -189.02374672 545.37325859 -190.52671814 545.3742218 C-193 545 -193 545 -194.81930542 543.65866089 C-196.6757438 541.050703 -196.33579079 538.73658822 -196.29296875 535.58203125 C-196.28330078 534.32841797 -196.27363281 533.07480469 -196.26367188 531.78320312 C-196.23853516 530.47287109 -196.21339844 529.16253906 -196.1875 527.8125 C-196.17244967 526.47722837 -196.15876187 525.14194063 -196.14648438 523.80664062 C-196.11107694 520.53735424 -196.0616889 517.26887907 -196 514 C-196.56122559 513.88897949 -197.12245117 513.77795898 -197.70068359 513.66357422 C-202.90382311 512.57963239 -207.71723357 511.15257299 -212.625 509.125 C-213.24117188 508.88136719 -213.85734375 508.63773438 -214.4921875 508.38671875 C-217.75823258 507.06246098 -220.69749643 505.58048297 -223.6484375 503.6796875 C-226.74921075 501.72386584 -226.74921075 501.72386584 -229.4375 502.36328125 C-233.91413058 505.22259255 -238.00966385 508.55887623 -242.1171875 511.91992188 C-247.23143821 515.92930144 -247.23143821 515.92930144 -250.6328125 516.2421875 C-254.06408743 514.44161749 -256.37330344 511.82342574 -258.875 508.9375 C-259.40383789 508.34622314 -259.93267578 507.75494629 -260.47753906 507.14575195 C-261.99752372 505.44101134 -263.50181822 503.72390644 -265 502 C-265.67804688 501.22140625 -266.35609375 500.4428125 -267.0546875 499.640625 C-268.1577627 498.36980103 -269.25940317 497.09772982 -270.359375 495.82421875 C-272.17268477 493.80799098 -274.06978653 491.90442818 -276 490 C-278.71681595 487.30966374 -281.37073726 484.58446192 -283.9375 481.75 C-284.78634766 480.81414062 -284.78634766 480.81414062 -285.65234375 479.859375 C-287.17677608 477.75610024 -287.92577079 476.6128682 -288 474 C-286.375 471.703125 -286.375 471.703125 -284 469.25 C-283.17757812 468.3734375 -282.35515625 467.496875 -281.5078125 466.59375 C-279.94870884 464.98121911 -278.38228606 463.37569125 -276.8046875 461.78125 C-276.16789062 461.1109375 -275.53109375 460.440625 -274.875 459.75 C-274.29492188 459.16734375 -273.71484375 458.5846875 -273.1171875 457.984375 C-271.41252767 454.95651768 -272.07432697 453.31992438 -273 450 C-274.19921814 446.98680207 -275.55441665 444.05762629 -276.9375 441.125 C-279.60859788 435.45787641 -281.66559951 430.13405042 -283 424 C-283.67579102 424.02094727 -284.35158203 424.04189453 -285.04785156 424.06347656 C-288.11508254 424.14671643 -291.18207582 424.19868466 -294.25 424.25 C-295.31347656 424.28351563 -296.37695312 424.31703125 -297.47265625 424.3515625 C-298.49746094 424.36445313 -299.52226562 424.37734375 -300.578125 424.390625 C-301.52075195 424.41157227 -302.46337891 424.43251953 -303.43457031 424.45410156 C-306.8234269 423.85424686 -307.8422203 422.63940386 -310 420 C-310.50120544 417.60974121 -310.50120544 417.60974121 -310.50170898 414.92773438 C-310.51108994 413.91988892 -310.52047089 412.91204346 -310.53013611 411.87365723 C-310.51328514 410.25010315 -310.51328514 410.25010315 -310.49609375 408.59375 C-310.49754898 407.47689819 -310.49900421 406.36004639 -310.50050354 405.20935059 C-310.4988442 402.84901317 -310.48727921 400.48866497 -310.46655273 398.12841797 C-310.43760834 394.51353034 -310.445942 390.9001098 -310.45898438 387.28515625 C-310.45274671 384.99218036 -310.44435556 382.69920912 -310.43359375 380.40625 C-310.43652939 379.32388062 -310.43946503 378.24151123 -310.44248962 377.12634277 C-310.42346336 375.61457458 -310.42346336 375.61457458 -310.40405273 374.07226562 C-310.39864975 373.18720337 -310.39324677 372.30214111 -310.38768005 371.39025879 C-309.91873662 368.49896697 -309.00266439 367.11228423 -307 365 C-304.5480957 364.45410156 -304.5480957 364.45410156 -301.67578125 364.390625 C-300.64775391 364.35839844 -299.61972656 364.32617188 -298.56054688 364.29296875 C-297.48869141 364.27878906 -296.41683594 364.26460938 -295.3125 364.25 C-293.68731445 364.20552734 -293.68731445 364.20552734 -292.02929688 364.16015625 C-289.35278941 364.08941156 -286.67715521 364.03673844 -284 364 C-283.63104614 363.16795044 -283.63104614 363.16795044 -283.25463867 362.3190918 C-281.55263712 358.48461822 -279.84525231 354.65307129 -278.11328125 350.83203125 C-277.5127962 349.49228816 -276.91253398 348.15244517 -276.3125 346.8125 C-276.00505859 346.14025391 -275.69761719 345.46800781 -275.38085938 344.77539062 C-272.78423813 339.0972617 -272.78423813 339.0972617 -272 333 C-273.5600756 330.32915364 -275.5688783 328.17746315 -277.6875 325.9375 C-278.77526853 324.73876102 -279.86251803 323.53955083 -280.94921875 322.33984375 C-282.77111336 320.33841319 -284.60589779 318.35364481 -286.45703125 316.37890625 C-288 314 -288 314 -288.0390625 311.48828125 C-286.69849906 308.27798459 -284.9131513 306.56078649 -282.375 304.1875 C-277.98340041 299.96314046 -273.95297777 295.62934279 -270 291 C-268.94110828 289.78037749 -267.88110493 288.56171969 -266.8203125 287.34375 C-265.65100287 286.00003376 -264.48173244 284.65628341 -263.3125 283.3125 C-262.75328857 282.67030518 -262.19407715 282.02811035 -261.61791992 281.36645508 C-258.6687202 277.96747478 -255.78141207 274.53936378 -253 271 C-247.5813791 271.41062357 -245.06113306 273.2237137 -241.0625 276.8125 C-239.06393594 278.59514541 -237.08370918 280.32522198 -235 282 C-234.44892578 282.44706299 -233.89785156 282.89412598 -233.33007812 283.35473633 C-231.39727375 284.81064963 -231.39727375 284.81064963 -228 286 C-224.96682423 284.8585848 -222.99273351 283.83779281 -220.375 282.0625 C-218.97710558 281.18944976 -217.57468256 280.32361135 -216.16796875 279.46484375 C-215.4723584 279.03800293 -214.77674805 278.61116211 -214.06005859 278.17138672 C-210.10275027 275.92118936 -205.87852522 274.52848408 -201.57421875 273.0703125 C-198.8725933 271.94702665 -197.74051597 271.31663952 -196 269 C-195.54209221 266.1298955 -195.54209221 266.1298955 -195.59375 262.87109375 C-195.56087891 261.07188477 -195.56087891 261.07188477 -195.52734375 259.23632812 C-195.50908647 256.69986999 -195.49085739 254.16341166 -195.47265625 251.62695312 C-195.43978516 249.82967773 -195.43978516 249.82967773 -195.40625 247.99609375 C-195.39916016 246.89450928 -195.39207031 245.7929248 -195.38476562 244.65795898 C-195.25779297 243.78083252 -195.13082031 242.90370605 -195 242 C-191.67821887 239.78547925 -190.62113646 239.74424383 -186.75 239.7253418 C-185.67878906 239.71580978 -184.60757813 239.70627777 -183.50390625 239.69645691 C-181.76947266 239.69782402 -181.76947266 239.69782402 -180 239.69921875 C-178.81277344 239.69493362 -177.62554687 239.6906485 -176.40234375 239.68623352 C-173.89063149 239.680487 -171.37890259 239.67999231 -168.8671875 239.68432617 C-165.01533776 239.68748741 -161.16425479 239.66402532 -157.3125 239.63867188 C-154.87500097 239.63639913 -152.43749987 239.63569527 -150 239.63671875 C-148.84371094 239.627509 -147.68742188 239.61829926 -146.49609375 239.60881042 C-145.42488281 239.61503922 -144.35367188 239.62126801 -143.25 239.62768555 C-142.30640625 239.62705612 -141.3628125 239.6264267 -140.390625 239.6257782 C-138 240 -138 240 -136.19889832 241.34707642 C-134.36173657 243.87997511 -134.56087879 246.10656376 -134.48828125 249.19921875 C-134.45283203 250.40771484 -134.41738281 251.61621094 -134.38085938 252.86132812 C-134.35830078 254.12396484 -134.33574219 255.38660156 -134.3125 256.6875 C-134.27833984 257.96173828 -134.24417969 259.23597656 -134.20898438 260.54882812 C-134.12639216 263.69913103 -134.05727665 266.84915157 -134 270 C-129.47733178 272.31404001 -124.97153127 274.46684382 -120.26831055 276.38232422 C-96.22066532 286.28235342 -78.18692653 304.7196102 -64 326 C-64.6878278 336.06577268 -75.59241485 346.63319504 -81.73876953 354.40087891 C-83.00204025 356.00258685 -84.24922419 357.61597663 -85.49609375 359.23046875 C-86.67365234 360.72513672 -86.67365234 360.72513672 -87.875 362.25 C-88.92300781 363.58804688 -88.92300781 363.58804688 -89.9921875 364.953125 C-92.06441529 367.06566851 -93.10724778 367.66272844 -96 368 C-96.27972656 367.26136719 -96.55945313 366.52273438 -96.84765625 365.76171875 C-105.09653085 344.88755698 -119.24004901 329.9852164 -139.58984375 320.44140625 C-154.05898618 314.32558316 -173.18558917 313.13677671 -188 319 C-197.07721028 322.88823491 -205.67435186 327.28815844 -213 334 C-213.90363281 334.82371094 -214.80726563 335.64742188 -215.73828125 336.49609375 C-225.30065643 345.61852203 -231.5746757 355.53279325 -236 368 C-236.39445312 369.08410156 -236.78890625 370.16820312 -237.1953125 371.28515625 C-243.02773582 389.7001152 -241.74459826 411.46577739 -233.171875 428.875 C-223.95853372 445.58185885 -211.49418853 459.0677481 -193.875 466.9375 C-193.24247314 467.22020752 -192.60994629 467.50291504 -191.95825195 467.79418945 C-175.75046392 474.56874136 -155.32581865 474.21487249 -139 468 C-114.76576522 457.93329621 -98.44620993 441.40944186 -87.01171875 418.06640625 C-78.53882503 400.84129265 -67.2880587 385.58743706 -54.6953125 371.15234375 C-34.15115835 347.44693797 -11.17650756 320.23669343 -4 289 C-3.77570313 288.06800781 -3.55140625 287.13601563 -3.3203125 286.17578125 C0.78594352 266.91012799 -3.45722256 249.21036121 -12 232 C-12.30566895 231.3723877 -12.61133789 230.74477539 -12.92626953 230.09814453 C-22.37685139 210.86142756 -35.97340166 194.23597029 -49.03662109 177.37060547 C-69.80034157 150.53290299 -81.31064672 125.63145336 -79 91 C-78.28910218 85.45781032 -76.80790406 80.28782395 -75 75 C-74.62617188 73.87722656 -74.25234375 72.75445312 -73.8671875 71.59765625 C-67.6615484 54.31638975 -57.50252216 40.27121249 -45 27 C-44.40058594 26.33613281 -43.80117188 25.67226562 -43.18359375 24.98828125 C-33.07226243 14.22178808 -15.29984013 -0.83453673 0 0 Z "
     fill="#FAFAFA"
     transform="translate(511,43)"
     id="path2" />
  <path
     d="M0 0 C2 1.0625 2 1.0625 3 3 C2.69625883 8.44149071 1.52613499 11.25604982 -2.0625 15.3125 C-2.87847656 16.26382813 -3.69445312 17.21515625 -4.53515625 18.1953125 C-5.75525391 19.58363281 -5.75525391 19.58363281 -7 21 C-17.49924478 33.07313537 -24.80984233 46.91856919 -30 62 C-30.62068359 63.75570312 -30.62068359 63.75570312 -31.25390625 65.546875 C-37.28318463 85.46240081 -36.02660352 106.95844406 -26.29541016 125.29199219 C-18.35767334 139.59017087 -7.79809038 152.46443455 2.35546875 165.21875 C10.20296157 175.11632344 17.50489701 185.15954575 24 196 C24.40057617 196.66257813 24.80115234 197.32515625 25.21386719 198.0078125 C36.13325426 216.37182704 43.42815868 237.67361975 43.3125 259.125 C43.30686035 260.22448975 43.3012207 261.32397949 43.29541016 262.45678711 C42.7932658 296.34655962 25.84656574 321.42449813 3 345 C2.48195801 345.53463867 1.96391602 346.06927734 1.43017578 346.62011719 C-3.54000532 351.72233656 -8.62489588 356.62593328 -14.03515625 361.26171875 C-20.54098161 367.01736942 -26.37667469 373.3957295 -32 380 C-33.21623047 381.38251953 -33.21623047 381.38251953 -34.45703125 382.79296875 C-57.27452949 408.91879643 -75.09599013 440.70687381 -84.45703125 474.1796875 C-85 476 -85 476 -86 478 C-88.25 478.375 -88.25 478.375 -91 478 C-94.73373141 473.57130398 -95.6521322 469.8993073 -95.5 464.25 C-95.48718994 463.51120605 -95.47437988 462.77241211 -95.46118164 462.01123047 C-94.7092954 440.84685994 -86.01759567 420.35061808 -76 402 C-75.63036133 401.31728027 -75.26072266 400.63456055 -74.87988281 399.93115234 C-68.59831508 388.45572272 -61.13867464 378.21776838 -53 368 C-52.09542739 366.85359525 -51.19172939 365.70649964 -50.2890625 364.55859375 C-49.85907959 364.01187012 -49.42909668 363.46514648 -48.98608398 362.90185547 C-48.55755127 362.35674316 -48.12901855 361.81163086 -47.6875 361.25 C-47.25445557 360.69973145 -46.82141113 360.14946289 -46.37524414 359.58251953 C-21.64116396 328.11244366 -0.2074017 299.88897457 -3 258 C-4.39245509 246.73100553 -9.62990846 236.81482128 -15 227 C-15.31984863 226.4033252 -15.63969727 225.80665039 -15.96923828 225.19189453 C-25.27900122 207.87196711 -37.28061457 192.53628988 -49.45117188 177.16748047 C-70.87295767 150.06379141 -82.63816298 122.83723392 -78.71582031 87.43505859 C-75.51328796 68.05243984 -64.59485744 49.67803728 -52 35 C-51.30132813 34.17886719 -50.60265625 33.35773438 -49.8828125 32.51171875 C-39.63230675 20.78382694 -17.55351185 -3.36131078 0 0 Z "
     fill="#FAFAFA"
     transform="translate(622,43)"
     id="path3" />
  <path
     d="M0 0 C0.78606628 -0.00671722 1.57213257 -0.01343445 2.38201904 -0.02035522 C4.9738197 -0.03931037 7.56536095 -0.04325847 10.15722656 -0.04541016 C11.96698105 -0.05184096 13.77673449 -0.05856953 15.58648682 -0.06558228 C19.37929696 -0.07754966 23.17201606 -0.08126377 26.96484375 -0.08007812 C31.80790946 -0.07987523 36.65038642 -0.10714904 41.49331284 -0.14162254 C45.23214357 -0.16394242 48.97083391 -0.16791407 52.70972443 -0.16685867 C54.4941841 -0.16920806 56.27864804 -0.17799404 58.06304169 -0.19352341 C78.03839934 -0.35105814 78.03839934 -0.35105814 84.87347412 5.98208618 C90.95984531 12.34957891 92.4983114 18.92052658 92.4519043 27.44775391 C92.45876755 28.33818893 92.4656308 29.22862396 92.47270203 30.14604187 C92.49092488 33.0745767 92.48713769 36.00257325 92.48144531 38.93115234 C92.48601046 40.9798805 92.49131702 43.02860712 92.49732971 45.07733154 C92.50625288 49.36769842 92.50384806 53.6578791 92.49389648 57.94824219 C92.48242944 63.42330033 92.50258787 68.89771132 92.53181362 74.37268448 C92.55024058 78.6040042 92.54986987 82.83517087 92.5441761 87.06652069 C92.54402357 89.08376724 92.55001141 91.10102463 92.56246758 93.11823273 C92.68938366 117.04783372 92.68938366 117.04783372 86.09275818 124.49884033 C80.11807708 130.26900436 74.14664562 131.59117511 65.96630859 131.58105469 C65.17848999 131.58777191 64.39067139 131.59448914 63.57897949 131.60140991 C60.98780929 131.6203284 58.39689893 131.62431087 55.80566406 131.62646484 C53.99494319 131.63289668 52.18422336 131.63962533 50.37350464 131.64663696 C46.58247468 131.65859408 42.79153575 131.66231936 39.00048828 131.66113281 C34.15623255 131.66092963 29.3125635 131.68823792 24.46844673 131.72267723 C20.72965849 131.74497522 16.99101085 131.74896948 13.25216293 131.74791336 C11.46687675 131.75026471 9.68158642 131.75906188 7.89636612 131.77457809 C5.39322696 131.79429881 2.89134545 131.78837711 0.38818359 131.77636719 C-0.34038849 131.7876062 -1.06896057 131.79884521 -1.8196106 131.8104248 C-8.08012448 131.73456131 -13.03739772 129.5925505 -17.94042969 125.72021484 C-26.70196152 115.43381463 -25.41121181 102.48556151 -25.38574219 89.75927734 C-25.39031023 87.75728174 -25.39561765 85.7552877 -25.40162659 83.7532959 C-25.41052953 79.57081708 -25.40816609 75.38852951 -25.39819336 71.20605469 C-25.38669758 65.86662044 -25.40693917 60.52784697 -25.4361105 55.18849945 C-25.45452084 51.05844994 -25.45417057 46.92855745 -25.44847298 42.79847717 C-25.44832041 40.83064343 -25.45431114 38.86279861 -25.46676445 36.89500427 C-25.58563547 15.03863054 -25.58563547 15.03863054 -18.98730469 6.85302734 C-18.33632813 6.33740234 -17.68535156 5.82177734 -17.01464844 5.29052734 C-16.36625 4.75427734 -15.71785156 4.21802734 -15.04980469 3.66552734 C-10.15876839 0.45948493 -5.74352855 -0.00708611 0 0 Z "
     fill="#F8F8F8"
     transform="translate(559.9521484375,653.70947265625)"
     id="path4" />
  <path
     d="M0 0 C22.460625 -0.1546875 22.460625 -0.1546875 45.375 -0.3125 C50.08700684 -0.35802002 54.79901367 -0.40354004 59.65380859 -0.45043945 C65.44848633 -0.47302246 65.44848633 -0.47302246 68.1690979 -0.47721863 C70.05205203 -0.48485066 71.93498312 -0.50234046 73.81777954 -0.52787781 C94.86124362 -0.79880638 94.86124362 -0.79880638 102 5 C108.5103077 11.93704302 109.30942652 19.36047813 109.30078125 28.55078125 C109.30506638 29.56416061 109.3093515 30.57753998 109.31376648 31.62162781 C109.31949559 33.76068375 109.32002053 35.89975916 109.31567383 38.03881836 C109.31252065 41.29119586 109.3359679 44.54265711 109.36132812 47.79492188 C109.36360211 49.8802072 109.36430415 51.96549494 109.36328125 54.05078125 C109.372491 55.01357498 109.38170074 55.97636871 109.39118958 56.96833801 C109.34172963 64.28101255 108.14868337 70.54675887 104.25 76.8125 C99.04053799 81.87725474 93.86619793 83.38316709 87 85 C89.62091707 89.50239045 92.24617023 94.00222646 94.875 98.5 C95.26138641 99.16116821 95.64777283 99.82233643 96.04586792 100.50354004 C101.00533067 108.98198344 106.01075407 117.41864986 111.30615234 125.69335938 C114 129.91105982 114 129.91105982 114 131 C104.76888778 132.64424322 95.05645461 133.99918223 86 131 C76.78357358 123.39844598 71.85544326 109.6784558 67.53515625 98.85546875 C64.15626931 90.85494815 64.15626931 90.85494815 58 85 C47.06558942 82.2753272 36.24251948 83.46464193 25 84 C25 99.18 25 114.36 25 130 C16.75 130 8.5 130 0 130 C0 87.1 0 44.2 0 0 Z "
     fill="#F9F9F9"
     transform="translate(678,654)"
     id="path5" />
  <path
     d="M0 0 C23.0175 -0.12375 23.0175 -0.12375 46.5 -0.25 C53.75194336 -0.30462402 53.75194336 -0.30462402 61.15039062 -0.36035156 C67.08105469 -0.37841797 67.08105469 -0.37841797 69.8626709 -0.3817749 C71.79402356 -0.38789345 73.72536149 -0.40191246 75.65661621 -0.42230225 C78.59230857 -0.45173141 81.52707209 -0.45561916 84.46289062 -0.45410156 C85.31473183 -0.468494 86.16657303 -0.48288643 87.0442276 -0.497715 C93.7467254 -0.4515686 99.21564896 1.24734935 104.05859375 6.03515625 C104.51363281 6.70417969 104.96867187 7.37320313 105.4375 8.0625 C105.91058594 8.73410156 106.38367188 9.40570312 106.87109375 10.09765625 C108.86817178 13.46297459 109.13564185 16.25238146 109.17700195 20.07885742 C109.19625481 21.63143501 109.19625481 21.63143501 109.21589661 23.21537781 C109.22328354 24.33410782 109.23067047 25.45283783 109.23828125 26.60546875 C109.246353 27.7586409 109.25442474 28.91181305 109.26274109 30.09992981 C109.27658069 32.54357399 109.28730339 34.98723749 109.29516602 37.4309082 C109.31235228 41.15548721 109.3562382 44.87917255 109.40039062 48.60351562 C109.41052004 50.97916015 109.41903537 53.35481221 109.42578125 55.73046875 C109.44328934 56.83907761 109.46079742 57.94768646 109.47883606 59.08988953 C109.45757462 66.72662567 108.35101057 72.03693271 103.2890625 78.0234375 C102.73992187 78.46945312 102.19078125 78.91546875 101.625 79.375 C101.08101563 79.83648438 100.53703125 80.29796875 99.9765625 80.7734375 C95.21653943 83.72728581 90.58540098 84.24752937 85.07666016 84.22705078 C84.08048172 84.22748886 84.08048172 84.22748886 83.06417847 84.22793579 C80.88900263 84.22655261 78.71417782 84.21103988 76.5390625 84.1953125 C75.02306302 84.19157876 73.50706111 84.18873349 71.99105835 84.18673706 C68.01590218 84.17912902 64.04089394 84.1595051 60.0657959 84.1373291 C55.28832557 84.11319684 50.51080556 84.1040762 45.73329163 84.09242249 C38.48875844 84.07307883 31.24454936 84.03473678 24 84 C24 99.18 24 114.36 24 130 C16.08 130 8.16 130 0 130 C0 87.1 0 44.2 0 0 Z "
     fill="#FBFAFB"
     transform="translate(401,654)"
     id="path6" />
  <path
     d="M0 0 C12.21 0 24.42 0 37 0 C41.66842587 11.84186074 46.10963928 23.73024174 50.33843994 35.73522949 C52.05663448 40.61215012 53.78447433 45.48565369 55.51171875 50.359375 C55.87261597 51.37823792 56.23351318 52.39710083 56.60534668 53.44683838 C61.64293143 67.65431082 66.76699461 81.83076524 71.8840332 96.00976562 C75.96612662 107.32496403 80.01163124 118.65139235 84 130 C75.09 130 66.18 130 57 130 C56.21753906 127.92976562 55.43507813 125.85953125 54.62890625 123.7265625 C53.87126657 121.72418751 53.11326338 119.7219505 52.35522461 117.71972656 C51.82815113 116.32696696 51.30145634 114.93406398 50.77514648 113.54101562 C50.01905985 111.53998709 49.26161777 109.53947623 48.50390625 107.5390625 C48.04830322 106.33459473 47.5927002 105.13012695 47.12329102 103.88916016 C46.09600127 101.11474872 46.09600127 101.11474872 45 99 C27.18 99 9.36 99 -9 99 C-12.57812057 108.82689526 -12.57812057 108.82689526 -16.15014648 118.65600586 C-16.59430908 119.87167236 -17.03847168 121.08733887 -17.49609375 122.33984375 C-17.72848755 122.98248169 -17.96088135 123.62511963 -18.20031738 124.28723145 C-19.8859282 128.8859282 -19.8859282 128.8859282 -21 130 C-22.92667507 130.08748207 -24.85651861 130.10697334 -26.78515625 130.09765625 C-27.95498047 130.09443359 -29.12480469 130.09121094 -30.33007812 130.08789062 C-31.56177734 130.07951172 -32.79347656 130.07113281 -34.0625 130.0625 C-35.91584961 130.05573242 -35.91584961 130.05573242 -37.80664062 130.04882812 C-40.87114117 130.03699608 -43.93554721 130.02051173 -47 130 C-31.74194933 86.51665083 -16.19806124 43.14269829 0 0 Z "
     fill="#FAFAFA"
     transform="translate(294,654)"
     id="path7" />
  <path
     d="M0 0 C8.58 0 17.16 0 26 0 C33.3305461 21.44562298 40.6509187 42.89468557 47.94900513 64.35137939 C48.68410054 66.51252405 49.41934731 68.67361723 50.15475464 70.83465576 C54.13933788 82.54454887 58.11051769 94.25812264 62 106 C63.65 106 65.3 106 67 106 C69.12625452 99.91710452 71.25107483 93.8337092 73.375 87.75 C73.70247223 86.8120459 74.02994446 85.8740918 74.36734009 84.90771484 C78.54867024 72.92838004 82.71593661 60.94427086 86.86328125 48.953125 C87.26615356 47.78835632 87.66902588 46.62358765 88.08410645 45.42352295 C90.06001071 39.70962292 92.03444933 33.99522011 94.00732422 28.28027344 C94.73794456 26.16601177 95.46857557 24.05175378 96.19921875 21.9375 C96.52473221 20.99320129 96.85024567 20.04890259 97.18562317 19.07598877 C99.39306729 12.6911182 101.69057714 6.35091286 104 0 C112.91 0 121.82 0 131 0 C130.37738281 1.75828125 129.75476563 3.5165625 129.11328125 5.328125 C128.17941826 7.96865518 127.24578607 10.60926594 126.3125 13.25 C126.05790009 13.97028381 125.80330017 14.69056763 125.54098511 15.43267822 C121.66669689 26.39794566 117.81808902 37.37204446 113.984375 48.3515625 C97.41095749 95.81296951 97.41095749 95.81296951 90.25 115.6875 C89.97946808 116.44101746 89.70893616 117.19453491 89.4302063 117.97088623 C88.6910809 120.02735133 87.94800627 122.08233266 87.203125 124.13671875 C86.79739258 125.25780029 86.39166016 126.37888184 85.97363281 127.53393555 C85 130 85 130 84 131 C81.1156618 131.08865208 78.25537842 131.11521296 75.37109375 131.09765625 C74.07474754 131.09553383 74.07474754 131.09553383 72.75221252 131.09336853 C69.98060708 131.08775239 67.2090812 131.07519719 64.4375 131.0625 C62.5631522 131.05748708 60.68880315 131.05292381 58.81445312 131.04882812 C54.20960456 131.03777772 49.60481579 131.0205023 45 131 C42.00253979 124.58431343 39.55079472 118.09350243 37.3125 111.37890625 C36.9734111 110.37416763 36.6343222 109.36942902 36.28495789 108.33424377 C35.5612801 106.18918453 34.83941669 104.04351244 34.11923218 101.89727783 C32.22036235 96.2395518 30.3076845 90.58650302 28.39453125 84.93359375 C27.82566948 83.25179016 27.82566948 83.25179016 27.24531555 81.53601074 C24.13903503 72.3700558 20.93916647 63.2401975 17.6875 54.125 C13.41358614 42.12554709 9.28750088 30.08107832 5.25 18 C4.98271088 17.20321838 4.71542175 16.40643677 4.44003296 15.58551025 C3.69092684 13.34981158 2.94618107 11.11271571 2.203125 8.875 C1.97879288 8.20596649 1.75446075 7.53693298 1.52333069 6.84762573 C0 2.23074268 0 2.23074268 0 0 Z "
     fill="#F9F9F9"
     transform="translate(125,654)"
     id="path8" />
  <path
     d="M0 0 C1.27472168 -0.00630432 2.54944336 -0.01260864 3.86279297 -0.019104 C5.26009254 -0.01552433 6.65739087 -0.01142239 8.0546875 -0.00683594 C9.48193427 -0.00818265 10.90918059 -0.01012323 12.33642578 -0.01263428 C15.32914595 -0.01558528 18.32174681 -0.01128876 21.31445312 -0.00195312 C25.15485123 0.00944151 28.99496982 0.00288189 32.83535767 -0.00909805 C35.7829805 -0.01631737 38.73053681 -0.01402842 41.67816162 -0.00884247 C43.09438103 -0.00750616 44.51060644 -0.00915303 45.92681885 -0.01380157 C47.90433643 -0.01886768 49.88187512 -0.00978001 51.859375 0 C53.54909424 0.00238678 53.54909424 0.00238678 55.27294922 0.00482178 C57.9296875 0.25878906 57.9296875 0.25878906 59.9296875 2.25878906 C60.11753232 4.81870808 60.18158555 7.26948546 60.15673828 9.82958984 C60.15703033 10.61016754 60.15732239 11.39074524 60.15762329 12.19497681 C60.15622718 14.78146384 60.14065292 17.3676647 60.125 19.95410156 C60.12127087 21.74486127 60.11842342 23.53562302 60.11642456 25.3263855 C60.10878025 30.04467378 60.08912495 34.76283937 60.0670166 39.4810791 C60.04657532 44.29368428 60.03742653 49.10630925 60.02734375 53.91894531 C60.00587978 63.36561387 59.97173425 72.81219127 59.9296875 82.25878906 C51.21124747 82.28191518 42.49281794 82.29970552 33.77435398 82.31060123 C29.72643008 82.31582948 25.67852709 82.32292605 21.63061523 82.33422852 C17.72732779 82.34505949 13.82406051 82.35106634 9.9207592 82.35366631 C8.42835103 82.35552017 6.93594402 82.35914007 5.44354439 82.36451912 C3.36020611 82.37173237 1.27695219 82.37277989 -0.80639648 82.37231445 C-1.99442368 82.37453506 -3.18245087 82.37675568 -4.40647888 82.37904358 C-7.0703125 82.25878906 -7.0703125 82.25878906 -8.0703125 81.25878906 C-8.17594426 78.80512579 -8.21709578 76.37946737 -8.21557617 73.92504883 C-8.21893478 73.15758331 -8.2222934 72.3901178 -8.22575378 71.59939575 C-8.23529192 69.04964604 -8.23720832 66.49996178 -8.23828125 63.95019531 C-8.24149184 62.18521599 -8.24485576 60.42023693 -8.24836731 58.65525818 C-8.25436575 54.950423 -8.25620648 51.24561118 -8.25561523 47.54077148 C-8.25551357 42.78452031 -8.26916695 38.02841829 -8.28638744 33.27220249 C-8.29748521 29.6254558 -8.29953513 25.97874542 -8.29900551 22.33198357 C-8.30018895 20.57803775 -8.30463094 18.8240911 -8.31233788 17.07016182 C-8.32209313 14.62064175 -8.31927758 12.17144873 -8.31323242 9.72192383 C-8.31885193 8.99197708 -8.32447144 8.26203033 -8.33026123 7.50996399 C-8.28742053 0.70749879 -6.49310211 0.0091717 0 0 Z "
     fill="#10100F"
     transform="translate(568.0703125,677.7412109375)"
     id="path9" />
  <path
     d="M0 0 C7.63397628 -0.04193212 15.26753587 -0.08200336 22.9015274 -0.10350037 C26.45645572 -0.11406441 30.01128878 -0.128183 33.56616211 -0.15087891 C37.64437791 -0.17675331 41.72249271 -0.1864709 45.80078125 -0.1953125 C47.07585037 -0.20563507 48.35091949 -0.21595764 49.66462708 -0.22659302 C50.84562485 -0.22674408 52.02662262 -0.22689514 53.2434082 -0.22705078 C54.80560844 -0.23371262 54.80560844 -0.23371262 56.39936829 -0.24050903 C59 0 59 0 62 2 C62.37231445 5.1328125 62.37231445 5.1328125 62.36328125 9.125 C62.36402901 10.17905029 62.36402901 10.17905029 62.36479187 11.25439453 C62.36245061 12.74058865 62.35271888 14.22678667 62.33618164 15.71289062 C62.31259065 17.99124505 62.31561934 20.26842953 62.32226562 22.546875 C62.27907256 33.72092744 62.27907256 33.72092744 60 36 C57.48165894 36.24050903 57.48165894 36.24050903 54.26513672 36.22705078 C53.06404266 36.22689972 51.86294861 36.22674866 50.62545776 36.22659302 C49.32335358 36.21627045 48.02124939 36.20594788 46.6796875 36.1953125 C45.33733327 36.19158276 43.99497633 36.18873561 42.65261841 36.18673706 C39.117986 36.17909744 35.58351772 36.1594463 32.0489502 36.1373291 C28.44281271 36.11687765 24.83664794 36.10762735 21.23046875 36.09765625 C14.15350083 36.07726153 7.07698374 36.03811661 0 36 C0 24.12 0 12.24 0 0 Z "
     fill="#111111"
     transform="translate(425,678)"
     id="path10" />
  <path
     d="M0 0 C7.37345249 -0.04193433 14.74647342 -0.08200526 22.11994171 -0.10350037 C25.55356444 -0.11406361 28.98708852 -0.12818069 32.4206543 -0.15087891 C36.35985119 -0.17675686 40.29900774 -0.18647162 44.23828125 -0.1953125 C46.0852636 -0.21079636 46.0852636 -0.21079636 47.96955872 -0.22659302 C49.68099312 -0.22681961 49.68099312 -0.22681961 51.42700195 -0.22705078 C52.432939 -0.231492 53.43887604 -0.23593323 54.47529602 -0.24050903 C57 0 57 0 60 2 C60.37231445 5.1328125 60.37231445 5.1328125 60.36328125 9.125 C60.36402901 10.17905029 60.36402901 10.17905029 60.36479187 11.25439453 C60.36245061 12.74058865 60.35271888 14.22678667 60.33618164 15.71289062 C60.31259065 17.99124505 60.31561934 20.26842953 60.32226562 22.546875 C60.27907256 33.72092744 60.27907256 33.72092744 58 36 C55.55758667 36.24050903 55.55758667 36.24050903 52.44873047 36.22705078 C50.70715164 36.22682419 50.70715164 36.22682419 48.9303894 36.22659302 C47.67203278 36.21627045 46.41367615 36.20594788 45.1171875 36.1953125 C43.83264679 36.1924826 42.54810608 36.18965271 41.22463989 36.18673706 C37.80837233 36.17909809 34.39227463 36.15944752 30.97607422 36.1373291 C27.4905837 36.11687625 24.00506493 36.10762704 20.51953125 36.09765625 C13.67953744 36.07726271 6.84001019 36.0381177 0 36 C0 24.12 0 12.24 0 0 Z "
     fill="#0F0F0F"
     transform="translate(703,678)"
     id="path11" />
  <path
     d="M0 0 C1.65 0 3.3 0 5 0 C7.56799194 6.94006931 10.13097494 13.88197303 12.69042969 20.82519531 C13.56231393 23.18858028 14.43535792 25.55153773 15.30957031 27.9140625 C16.56357731 31.30357801 17.81344992 34.69459274 19.0625 38.0859375 C19.45622803 39.14743011 19.84995605 40.20892273 20.25561523 41.30258179 C20.79617554 42.77388046 20.79617554 42.77388046 21.34765625 44.27490234 C21.66742432 45.14094086 21.98719238 46.00697937 22.31665039 46.89926147 C23 49 23 49 23 51 C9.8 51 -3.4 51 -17 51 C-14.74985718 40.87435732 -14.74985718 40.87435732 -13.50366211 37.33813477 C-13.22675034 36.54443985 -12.94983856 35.75074493 -12.66453552 34.93299866 C-12.37176224 34.11077316 -12.07898895 33.28854767 -11.77734375 32.44140625 C-11.31902916 31.13586037 -11.31902916 31.13586037 -10.85145569 29.80393982 C-10.21090401 27.98213654 -9.56792444 26.16118522 -8.92260742 24.34106445 C-7.93219014 21.54752316 -6.94885776 18.75156681 -5.96679688 15.95507812 C-5.34154953 14.17954529 -4.71591255 12.4041496 -4.08984375 10.62890625 C-3.79504623 9.79251114 -3.50024872 8.95611603 -3.19651794 8.09437561 C-1.11826651 2.23653302 -1.11826651 2.23653302 0 0 Z "
     fill="#101010"
     transform="translate(310,678)"
     id="path12" />
</svg>
